# xmcd CD database file
#
# Track frame offsets:
#	150
#	14942
#	27707
#	40782
#	54810
#	68390
#	80272
#	92087
#	105525
#	119162
#	132235
#	144902
#	164780
#	178000
#
# Disc length: 2533 seconds
#
# Revision: 0
# Processed by: cddbd v1.5.1PL0 Copyright (c) Steve Scherf et al.
# Submitted via: CDex 1.51
#
DISCID=c009e30e
DTITLE=EARL HINES - THE FATHER'S GETWAY
DYEAR=1995
DGENRE=Jazz
TTITLE0=FIFTY SEVEN VARIETIES
TTITLE1=STOW AWAY
TTITLE2=A MONDAY DATE
TTITLE3=ROSETTA
TTITLE4=HARLEM LAMENT
TTITLE5=PIANO MAN
TTITLE6=SMOKE HOUSE BLUES
TTITLE7=CAVERNISM
TTITLE8=RIDIN' A RIFF
TTITLE9=CHICAGO RHYTHM
TTITLE10=THE EARL
TTITLE11=THE FATHER'S GETAWAY
TTITLE12=CHIMES IN BLUES
TTITLE13=SOLID MAMA
EXTD=YEAR: 1995
EXTT0=
EXTT1=
EXTT2=
EXTT3=
EXTT4=
EXTT5=
EXTT6=
EXTT7=
EXTT8=
EXTT9=
EXTT10=
EXTT11=
EXTT12=
EXTT13=
PLAYORDER=
